<?xml version="1.0" standalone="no"?>
<!DOCTYPE svg PUBLIC "-//W3C//DTD SVG 20010904//EN"
 "http://www.w3.org/TR/2001/REC-SVG-20010904/DTD/svg10.dtd">
<svg version="1.0" xmlns="http://www.w3.org/2000/svg"
 width="2219.000000pt" height="2219.000000pt" viewBox="0 0 2219.000000 2219.000000"
 preserveAspectRatio="xMidYMid meet">
<metadata>
Created by potrace 1.14, written by Peter Selinger 2001-2017
</metadata>
<g transform="translate(0.000000,2219.000000) scale(0.100000,-0.100000)"
fill="#000000" stroke="none">
<path d="M10907 19814 c-1 -1 -60 -5 -132 -9 -71 -3 -143 -8 -160 -10 -16 -2
-57 -7 -90 -10 -33 -3 -71 -8 -85 -10 -14 -2 -61 -9 -105 -15 -105 -15 -132
-19 -180 -30 -22 -5 -58 -11 -80 -15 -22 -3 -56 -10 -75 -15 -19 -5 -46 -11
-60 -14 -14 -3 -38 -8 -55 -11 -75 -15 -318 -86 -455 -132 -518 -175 -1003
-430 -1457 -764 -96 -71 -99 -74 -222 -179 -204 -173 -669 -670 -830 -885
-196 -263 -416 -640 -586 -1009 -94 -205 -244 -660 -289 -876 -3 -14 -7 -36
-10 -50 -7 -31 -35 -167 -41 -200 -3 -13 -7 -40 -10 -60 -3 -20 -7 -45 -9 -57
-3 -12 -7 -43 -11 -70 -4 -26 -8 -59 -10 -73 -2 -14 -7 -56 -11 -95 -3 -38 -8
-78 -10 -89 -25 -135 -25 -777 1 -1006 2 -19 7 -64 10 -100 3 -36 10 -90 15
-120 5 -30 12 -75 15 -100 9 -66 15 -103 20 -120 3 -8 7 -31 9 -50 6 -39 7
-45 30 -141 8 -37 17 -78 20 -92 11 -62 96 -351 133 -452 14 -41 15 -41 124
-77 91 -30 109 -34 103 -20 -30 69 -123 356 -159 492 -41 152 -86 357 -100
455 -4 22 -8 47 -10 55 -2 8 -7 41 -10 73 -4 32 -8 68 -11 80 -2 12 -6 51 -10
87 -3 36 -7 81 -9 100 -23 223 -23 671 0 880 3 25 7 70 11 100 11 110 14 135
19 160 2 14 7 45 10 70 14 103 65 354 100 490 41 159 128 423 197 595 304 760
804 1447 1440 1978 103 86 263 210 318 247 12 8 41 28 64 44 229 164 620 377
922 502 211 87 542 196 724 238 181 41 334 71 420 82 19 2 42 6 50 9 8 2 49 7
90 10 41 4 84 9 94 11 11 2 58 6 105 9 47 4 109 8 136 10 62 5 501 6 575 1 77
-5 203 -16 242 -21 18 -2 58 -7 88 -10 48 -6 141 -20 270 -40 19 -3 67 -13
105 -21 39 -9 81 -18 95 -20 36 -7 286 -72 345 -91 226 -71 352 -117 560 -206
130 -55 452 -216 496 -248 15 -10 30 -19 33 -19 10 0 190 -112 286 -178 280
-193 470 -352 725 -607 269 -269 445 -481 643 -777 223 -332 457 -825 591
-1243 37 -115 112 -386 125 -455 3 -14 12 -59 20 -100 8 -41 17 -95 21 -120 3
-25 8 -52 10 -60 7 -25 19 -115 30 -225 4 -38 9 -79 11 -90 22 -118 21 -719
-1 -890 -2 -16 -6 -59 -9 -95 -3 -36 -8 -74 -10 -85 -4 -19 -6 -38 -22 -162
-3 -27 -8 -51 -10 -54 -1 -3 -6 -28 -10 -55 -3 -27 -8 -51 -9 -54 -2 -3 -6
-25 -10 -48 -19 -127 -124 -511 -195 -711 -30 -83 -36 -112 -25 -107 8 3 57
20 108 37 50 18 93 32 94 33 13 9 164 553 188 681 3 17 12 66 20 110 8 44 17
91 20 105 9 46 24 144 30 200 3 30 8 73 11 95 18 147 28 354 27 575 -2 169 -5
241 -19 400 -10 114 -38 343 -49 400 -3 14 -14 77 -26 140 -11 63 -22 117 -24
121 -2 3 -7 21 -10 40 -22 130 -120 458 -205 684 -156 416 -277 642 -638 1194
-259 396 -692 826 -1192 1183 -612 437 -1281 731 -1980 872 -78 15 -115 22
-230 41 -118 19 -304 39 -475 51 -88 6 -513 12 -518 8z"/>
<path d="M11060 19526 c-177 -66 -418 -298 -636 -611 -199 -286 -383 -649
-401 -790 -4 -38 -3 -41 19 -41 27 -1 251 -14 323 -19 291 -22 695 -24 726 -4
9 5 13 83 15 306 l2 298 -71 100 c-39 55 -75 105 -79 110 -5 6 -24 31 -44 58
l-35 47 43 1 c55 1 72 4 136 25 l52 18 1 136 c1 74 2 189 2 254 1 71 -2 120
-8 122 -6 1 -26 -3 -45 -10z"/>
<path d="M11194 19532 c-5 -4 -10 -119 -11 -259 l-2 -252 57 -6 c71 -8 91 -16
134 -53 l34 -30 59 20 c33 11 81 21 107 23 75 4 235 -36 252 -63 6 -10 72 -29
123 -36 l32 -4 -21 41 c-40 80 -163 233 -282 352 -128 127 -238 210 -327 246
-55 22 -138 33 -155 21z"/>
<path d="M10497 19514 c-1 -1 -36 -5 -78 -8 -616 -50 -1733 -499 -2217 -890
-157 -126 -159 -132 -91 -197 66 -63 197 -120 359 -155 8 -2 65 -12 125 -23
92 -16 113 -17 130 -6 33 20 147 142 226 240 99 122 213 230 384 365 38 30 77
60 85 67 100 79 257 184 380 254 154 88 272 143 658 304 61 26 112 48 112 49
0 3 -70 2 -73 0z"/>
<path d="M10775 19494 c-33 -7 -73 -16 -88 -19 -113 -22 -414 -138 -598 -231
-148 -74 -451 -257 -527 -319 -7 -5 -18 -14 -25 -20 -7 -5 -39 -30 -72 -54
-97 -72 -213 -171 -322 -275 -137 -130 -334 -358 -321 -371 3 -3 29 -7 59 -10
30 -3 65 -7 79 -10 14 -2 59 -7 100 -10 41 -3 86 -8 100 -10 14 -2 57 -6 95
-10 39 -3 81 -8 95 -10 14 -2 57 -6 95 -10 39 -3 81 -8 95 -10 14 -2 54 -6 90
-9 36 -4 75 -8 85 -10 11 -2 56 -7 100 -11 44 -3 89 -7 99 -8 14 -2 26 23 62
130 46 141 134 335 211 468 47 81 181 286 193 295 3 3 17 21 30 40 75 111 332
387 430 463 41 31 31 33 -65 11z"/>
<path d="M11765 19477 c22 -14 110 -55 195 -93 256 -112 506 -249 665 -362 81
-58 199 -146 211 -157 6 -5 29 -23 50 -40 38 -29 73 -59 164 -140 51 -45 135
-129 228 -227 57 -60 74 -71 180 -116 64 -28 118 -57 120 -65 4 -19 -44 -57
-72 -57 -18 0 -16 -4 13 -31 31 -28 39 -30 80 -25 63 8 317 71 366 91 107 44
255 120 255 130 0 30 -56 86 -150 153 -36 26 -98 73 -139 105 -300 237 -922
546 -1391 691 -47 14 -98 30 -115 36 -100 32 -363 92 -465 106 -19 2 -46 7
-60 9 -14 3 -59 7 -100 11 l-75 6 40 -25z"/>
<path d="M11627 19434 c-3 -3 23 -31 56 -62 34 -31 70 -68 81 -81 10 -13 27
-31 36 -40 124 -124 295 -398 416 -666 33 -73 73 -123 113 -141 56 -24 58 -48
16 -146 -8 -21 -10 -20 100 -22 87 -2 72 6 300 -141 57 -37 119 -65 145 -65
17 0 37 29 45 65 21 97 31 120 53 123 13 2 37 -8 60 -26 37 -30 117 -53 158
-45 10 2 50 6 87 8 59 5 74 2 105 -17 l37 -23 -25 31 c-36 44 -117 107 -153
120 -30 10 -32 15 -37 67 -3 37 -12 63 -26 79 -12 13 -32 36 -45 51 -13 16
-85 79 -159 139 -74 61 -157 129 -184 152 -27 22 -81 65 -120 93 -39 29 -77
57 -84 63 -21 19 -273 175 -347 216 -107 58 -332 168 -410 199 -89 36 -212 74
-218 69z"/>
<path d="M11893 18798 l-102 -20 5 -41 c8 -66 30 -96 85 -119 36 -15 48 -25
45 -37 -3 -9 -8 -43 -12 -76 -8 -73 -25 -95 -74 -95 -39 0 -81 24 -155 87 -27
23 -67 42 -125 59 -47 14 -117 38 -155 54 -79 32 -224 49 -226 27 0 -7 -2
-141 -4 -299 l-3 -286 37 -5 c49 -6 407 -1 450 6 69 13 124 49 164 109 53 82
88 97 230 103 145 6 180 12 194 34 11 18 6 19 -125 18 -117 -1 -143 2 -177 18
l-40 19 70 12 c39 6 97 15 130 18 92 11 97 13 91 49 -8 52 -33 114 -93 231
-31 61 -61 121 -67 133 -13 27 -10 27 -143 1z"/>
<path d="M7945 18403 c-53 -34 -80 -57 -204 -172 -135 -125 -131 -121 -130
-134 0 -16 45 -50 115 -88 113 -60 133 -79 212 -198 42 -64 86 -132 97 -152
50 -90 90 -116 192 -125 l68 -6 30 63 c35 75 145 259 225 379 31 47 69 106 84
132 l27 47 -38 16 c-64 27 -153 53 -243 71 -47 9 -110 25 -140 36 -60 23 -175
94 -212 133 -28 30 -33 30 -83 -2z"/>
<path d="M14195 18292 c-58 -34 -143 -78 -188 -97 l-82 -34 100 -1 c55 -1 184
-3 288 -6 103 -2 187 -1 187 3 0 4 -45 50 -100 103 l-99 95 -106 -63z"/>
<path d="M8734 18132 c-6 -4 -21 -25 -33 -47 -13 -22 -34 -56 -46 -75 -12 -19
-61 -100 -107 -180 -47 -80 -94 -159 -104 -177 -59 -99 -84 -143 -84 -149 0
-3 14 -25 31 -49 17 -23 34 -58 38 -78 19 -84 -6 -219 -44 -233 -9 -4 -49 3
-88 15 -69 20 -73 21 -86 4 -23 -30 -61 -119 -80 -186 l-19 -64 27 5 c47 9 68
30 74 73 5 41 44 96 58 82 4 -5 10 -19 13 -33 13 -67 38 -166 44 -172 4 -4 34
-10 67 -13 33 -4 67 -8 75 -10 27 -7 184 -19 238 -18 68 0 88 15 165 121 59
82 60 84 64 160 5 105 4 101 27 99 63 -4 81 -92 47 -221 -22 -84 -16 -113 29
-144 30 -20 35 -21 50 -7 9 8 24 39 34 70 9 30 21 57 27 61 5 3 31 -5 57 -18
43 -21 48 -27 53 -65 11 -84 69 -112 223 -110 l81 2 23 49 c25 52 68 226 88
356 23 154 62 306 158 625 35 116 63 211 62 211 0 1 -32 5 -69 9 -37 3 -76 8
-85 10 -9 1 -53 6 -97 9 -44 4 -98 9 -120 11 -22 2 -67 7 -100 10 -33 3 -71 8
-85 10 -14 2 -61 7 -105 10 -44 3 -91 8 -105 10 -14 2 -59 6 -100 10 -41 4
-88 8 -105 10 -16 2 -61 7 -100 10 -38 4 -72 8 -75 10 -3 2 -10 1 -16 -3z"/>
<path d="M9962 17968 c-34 -92 -88 -263 -162 -518 -59 -202 -117 -480 -126
-604 l-7 -86 84 -1 c87 -1 142 -2 484 -13 407 -13 484 -16 668 -21 l187 -5 1
62 c0 35 3 318 5 631 l5 567 -83 1 c-46 0 -123 2 -173 4 -111 4 -352 12 -635
21 -118 3 -218 8 -222 10 -3 2 -15 -19 -26 -48z"/>
<path d="M11169 17721 c0 -141 -1 -422 -2 -626 l-2 -370 30 2 c47 2 261 13
350 18 208 12 305 14 356 7 31 -5 64 -5 74 -2 16 6 15 9 -11 27 -16 11 -49 30
-74 43 -58 29 -100 68 -100 95 0 11 19 41 43 66 34 36 48 62 65 122 12 43 32
111 43 152 25 85 31 88 94 50 94 -57 88 -55 124 -38 47 23 52 47 25 121 -13
34 -24 64 -24 66 0 2 26 11 58 21 107 35 221 18 260 -36 18 -26 31 -24 27 4
-2 12 -6 45 -9 72 -14 125 -46 214 -140 393 l-39 73 -146 -5 c-80 -2 -151 -5
-158 -5 -15 -1 -8 -82 11 -118 26 -51 84 -87 189 -117 31 -9 57 -20 57 -25 0
-19 -186 -165 -277 -217 l-32 -18 -23 30 c-12 16 -72 80 -133 142 -60 62 -116
125 -123 139 -9 17 -13 50 -10 99 3 61 1 74 -12 75 -8 0 -78 2 -155 5 -77 2
-184 6 -237 8 l-98 4 -1 -257z"/>
<path d="M12490 17839 c0 -13 22 -131 26 -137 1 -2 31 3 68 9 68 13 73 18 60
65 -10 39 -154 98 -154 63z"/>
<path d="M14337 17813 c-3 -5 -8 -22 -11 -40 -7 -28 -4 -33 23 -47 16 -9 42
-32 56 -51 29 -38 28 -54 -8 -115 -31 -52 -39 -58 -118 -90 -40 -16 -76 -33
-81 -38 -9 -9 6 -90 23 -124 5 -9 33 -24 62 -33 70 -22 75 -25 81 -57 7 -39
44 -85 83 -103 53 -25 159 -37 248 -26 6 0 9 18 7 41 -3 33 -7 40 -21 35 -26
-8 -43 38 -35 90 7 47 12 43 -74 65 -40 10 -43 13 -38 38 8 38 14 79 21 137 3
28 8 65 11 84 6 30 3 37 -27 63 -19 16 -65 60 -104 97 -77 74 -91 85 -98 74z"/>
<path d="M12602 17618 c-23 -18 -42 -39 -42 -46 0 -38 54 -277 81 -357 37
-110 66 -149 132 -179 61 -27 99 -75 102 -125 2 -24 12 -47 33 -69 27 -30 35
-33 64 -27 18 4 41 15 52 25 19 18 38 92 27 108 -3 4 -27 14 -54 22 -60 16
-55 23 74 90 138 73 192 140 215 265 3 16 7 32 10 34 5 6 -27 41 -38 41 -4 0
-39 22 -76 48 -37 27 -85 59 -107 70 -33 18 -400 132 -424 132 -4 0 -26 -14
-49 -32z"/>
<path d="M7666 17618 c-11 -43 -6 -65 17 -75 13 -6 38 -29 55 -50 l31 -39 -23
-50 c-30 -62 -57 -87 -126 -114 -102 -38 -99 -35 -82 -109 14 -58 19 -65 51
-78 99 -39 111 -46 111 -67 0 -21 20 -57 48 -85 23 -23 122 -48 202 -50 84 -2
89 1 86 54 -2 24 -6 29 -23 27 -30 -4 -44 49 -29 109 7 24 5 26 -51 38 -32 7
-61 15 -64 17 -4 2 -3 23 1 46 9 45 15 90 26 173 3 28 7 53 8 57 0 3 -19 25
-44 48 -25 23 -75 71 -111 106 -37 35 -69 64 -72 64 -2 0 -7 -10 -11 -22z"/>
<path d="M15083 17407 l-53 -10 0 -78 0 -79 29 0 c34 0 72 28 101 75 l22 35
-22 35 c-12 19 -22 34 -23 34 -1 -1 -26 -6 -54 -12z"/>
<path d="M15160 17211 c-36 -26 -76 -60 -89 -74 l-23 -25 34 -144 c26 -108 32
-151 26 -178 -16 -69 -19 -85 -22 -118 l-2 -33 51 6 51 6 33 -76 c38 -85 80
-145 159 -225 106 -107 145 -191 160 -347 13 -130 6 -213 -27 -331 -11 -40
-17 -72 -14 -72 3 0 91 27 194 60 177 57 189 62 184 83 -56 262 -153 562 -255
792 -146 330 -288 601 -355 679 l-40 46 -65 -49z"/>
<path d="M8556 16739 c25 -49 105 -124 155 -146 43 -19 116 -39 169 -47 37 -5
35 -55 -5 -132 -27 -53 -32 -73 -34 -141 l-2 -79 68 11 c72 12 99 12 201 0 54
-6 62 -10 63 -28 0 -12 2 -31 5 -42 22 -111 26 -383 6 -408 -13 -15 -21 -15
-87 -1 -16 4 -73 8 -125 8 -157 3 -192 34 -264 236 -21 58 -46 128 -58 157
l-20 51 -76 0 c-91 -1 -110 2 -183 36 -30 14 -69 28 -85 32 -27 5 -31 2 -51
-39 -45 -93 -113 -150 -217 -182 -98 -31 -151 -101 -171 -225 -3 -19 -7 -46
-10 -60 -20 -118 -25 -224 -12 -259 13 -34 34 -40 127 -37 119 4 155 43 184
197 26 133 7 120 164 115 159 -5 204 -16 327 -79 110 -56 126 -60 293 -58 123
1 135 -1 166 -22 70 -47 123 -126 171 -253 34 -91 44 -100 110 -103 l55 -2 1
38 c0 21 2 45 4 55 1 9 6 51 9 95 3 43 8 87 10 98 2 11 7 60 11 109 4 49 8 98
10 110 2 11 7 57 10 101 4 44 9 91 10 105 2 14 5 57 9 95 7 82 15 156 21 205
2 19 7 69 10 110 3 41 8 91 10 110 3 19 7 64 10 100 3 36 8 76 10 90 6 33 -4
45 -40 46 -26 1 -121 7 -290 19 -22 1 -96 6 -165 9 -69 4 -147 9 -175 11 -27
3 -97 7 -155 10 -58 3 -124 8 -148 10 l-43 5 17 -31z"/>
<path d="M12228 16695 c-4 -4 -144 -14 -196 -15 -40 0 -42 -1 -38 -26 3 -14
14 -44 26 -65 11 -22 20 -41 20 -43 0 -1 -23 -3 -51 -3 -44 -1 -56 -6 -86 -34
-19 -19 -41 -46 -49 -61 -11 -21 -23 -27 -64 -33 -28 -4 -53 -5 -55 -4 -2 2
-5 20 -7 39 -6 53 11 131 36 165 12 17 25 35 29 41 5 9 -40 11 -171 8 -97 -3
-240 -6 -317 -7 l-140 -3 -2 -75 c-1 -40 -3 -386 -5 -767 l-3 -694 200 2 c110
1 358 3 550 6 193 3 465 6 605 8 l255 3 -1 124 c-1 132 -12 391 -19 449 -2 19
-7 85 -11 145 -8 150 -11 184 -18 230 -3 22 -8 65 -11 95 -4 33 -16 70 -31 92
-35 55 -132 111 -211 124 -32 5 -32 4 -31 -32 1 -30 6 -38 30 -46 41 -14 26
-22 -35 -19 -55 3 -124 22 -166 47 -24 15 -93 95 -87 101 1 2 27 -3 57 -11
140 -37 163 -18 119 94 -11 27 -19 50 -17 51 1 0 22 2 47 5 63 7 97 22 103 46
9 31 -64 58 -168 63 -46 1 -85 2 -87 0z"/>
<path d="M9633 16658 c-3 -35 -22 -205 -28 -248 -2 -14 -7 -50 -10 -80 -3 -30
-8 -66 -10 -80 -4 -28 -12 -92 -20 -160 -3 -25 -7 -61 -10 -80 -6 -46 -14
-116 -21 -187 -3 -32 -7 -74 -9 -93 -2 -19 -7 -69 -10 -110 -4 -41 -8 -88 -10
-105 -3 -16 -7 -90 -11 -162 l-6 -133 33 -1 c19 0 43 -2 54 -3 11 -2 61 -6
110 -10 50 -4 101 -9 115 -11 14 -2 57 -6 95 -9 39 -4 90 -8 115 -11 95 -10
167 -17 225 -21 33 -2 80 -6 105 -8 227 -21 719 -30 735 -14 10 10 18 1518 8
1519 -14 2 -134 6 -423 14 -157 4 -334 8 -395 10 -60 2 -227 6 -370 10 l-260
6 -2 -33z"/>
<path d="M6798 16348 c-59 -68 -132 -108 -198 -108 -33 0 -42 -5 -54 -27 -28
-55 -25 -76 17 -95 56 -27 120 -24 212 10 100 37 142 35 232 -11 81 -41 120
-58 192 -83 64 -23 115 -67 130 -114 11 -32 10 -37 -13 -56 -39 -34 -263 -124
-310 -124 -13 0 -56 14 -96 31 -40 17 -74 28 -77 26 -2 -3 -5 -38 -6 -78 l-2
-72 30 -9 c17 -4 48 -10 70 -14 22 -3 58 -9 80 -14 22 -5 56 -12 75 -15 19 -3
67 -12 105 -20 39 -8 81 -16 95 -19 14 -2 66 -12 115 -21 275 -52 336 -62 339
-56 2 3 7 40 11 81 3 41 8 82 10 90 2 8 6 50 10 93 4 43 8 88 10 100 2 12 6
48 10 80 3 31 12 78 20 105 17 53 19 100 6 120 -6 10 -14 6 -34 -18 -24 -28
-33 -51 -51 -132 -5 -23 -56 -79 -107 -120 -19 -15 -62 -125 -54 -138 9 -14
-32 -31 -60 -24 -14 3 -26 10 -26 15 -1 5 -2 15 -3 22 -1 6 3 49 9 95 l11 84
-47 23 c-74 38 -120 99 -168 224 -53 138 -95 205 -134 209 -16 2 -56 -10 -94
-27 -36 -17 -73 -31 -82 -31 -19 0 -67 29 -98 59 l-22 20 -53 -61z"/>
<path d="M12946 16254 c0 -22 6 -48 12 -60 20 -37 86 -89 170 -132 l83 -44 62
41 c73 47 116 66 177 77 25 4 48 9 53 10 4 1 17 2 30 4 19 1 18 3 -8 11 -91
30 -469 121 -520 126 l-60 5 1 -38z"/>
<path d="M12795 15995 c3 -60 8 -139 10 -175 2 -36 7 -105 10 -155 3 -49 8
-119 10 -155 3 -36 7 -112 10 -170 3 -58 8 -122 11 -142 l6 -37 156 4 c86 2
173 6 192 9 19 2 58 7 85 10 123 12 301 39 311 47 19 15 16 98 -5 142 -27 57
-41 71 -153 155 -119 89 -159 135 -206 234 -37 77 -37 78 -75 78 -60 0 -99 23
-161 93 -31 36 -81 80 -109 98 -29 18 -63 42 -75 53 l-24 21 7 -110z"/>
<path d="M14501 15961 c-35 -33 -39 -62 -16 -117 14 -33 17 -35 47 -28 71 15
79 14 67 -9 -6 -12 -36 -55 -66 -96 -89 -119 -104 -168 -89 -289 12 -95 15
-98 93 -105 37 -4 79 -9 93 -12 55 -13 149 -13 215 0 39 7 88 16 110 19 22 4
80 14 128 23 l88 16 25 49 c29 57 33 48 -63 171 -88 115 -180 213 -230 246
-40 27 -56 31 -111 31 -75 0 -129 25 -156 71 -18 31 -35 43 -78 53 -20 4 -33
-1 -57 -23z"/>
<path d="M15820 15623 c-41 -13 -127 -40 -190 -59 -63 -19 -119 -39 -124 -44
-16 -16 -54 -185 -51 -228 2 -26 13 -57 29 -80 14 -21 26 -43 26 -48 0 -6 -18
-30 -40 -55 -56 -61 -78 -111 -87 -194 -5 -50 -29 -85 -58 -85 -24 0 -23 26
12 190 18 91 36 176 39 190 3 14 13 61 24 105 26 114 33 165 21 165 -25 0 -88
-33 -103 -55 -24 -32 -44 -114 -53 -211 -13 -142 -18 -160 -83 -299 -60 -127
-63 -147 -47 -261 16 -111 -70 -191 -282 -263 -69 -24 -321 -126 -329 -133 -6
-7 -11 -37 -18 -118 -4 -36 -9 -92 -12 -125 -2 -33 -7 -79 -10 -101 -2 -23 -7
-67 -10 -99 l-5 -57 58 6 c84 8 212 26 258 36 22 5 56 12 75 15 174 30 489
117 730 201 168 58 415 162 388 164 -4 0 -3 13 2 29 29 103 33 681 5 791 -2 8
-6 42 -10 75 -9 85 -14 130 -26 210 -6 39 -12 95 -15 125 -3 30 -7 61 -9 68
-5 13 -18 126 -19 155 0 9 -3 17 -6 16 -3 -1 -39 -12 -80 -26z"/>
<path d="M13900 15326 c-103 -43 -150 -66 -150 -76 0 -5 6 -8 13 -5 6 2 44 6
82 10 115 10 134 14 178 33 l42 19 -30 15 c-53 27 -78 28 -135 4z"/>
<path d="M14267 15244 c-1 -1 -40 -5 -87 -9 -46 -3 -87 -8 -90 -10 -3 -1 -32
-6 -65 -9 -33 -4 -69 -9 -80 -12 -52 -11 -187 -29 -198 -26 -11 3 -22 -32 -42
-128 -19 -96 -26 -108 -58 -106 -19 1 -26 14 -51 103 -16 56 -32 101 -35 99
-3 -2 -49 -7 -101 -11 -52 -3 -106 -8 -120 -10 -14 -2 -59 -6 -100 -10 -41 -3
-95 -7 -120 -9 -25 -3 -76 -7 -115 -10 -38 -4 -87 -9 -107 -12 -36 -5 -36 -6
-36 -52 1 -53 -11 -649 -17 -879 -3 -115 -1 -152 9 -156 6 -3 64 -4 127 -3
120 1 129 4 244 68 47 27 141 35 202 19 54 -15 89 -45 164 -141 l60 -78 63 23
c34 12 71 22 82 22 56 -2 145 17 153 32 24 46 52 223 49 312 l-3 93 63 13
c105 21 117 30 117 88 1 38 -8 68 -36 125 -35 70 -43 99 -40 143 1 15 8 17 49
12 132 -16 148 -27 191 -138 27 -70 37 -86 58 -92 14 -3 27 -4 29 -2 2 2 12
42 22 88 15 69 18 124 17 309 -2 312 -12 337 -130 349 -36 4 -67 6 -68 5z"/>
<path d="M6832 15138 c-26 -24 -49 -45 -52 -48 -3 -3 -57 -52 -120 -110 -63
-58 -122 -112 -131 -120 -30 -28 -68 -105 -67 -137 1 -46 -32 -88 -127 -163
-68 -52 -84 -70 -85 -92 0 -42 21 -129 39 -159 l17 -28 125 131 c68 71 132
143 142 158 10 16 29 68 42 117 14 48 29 89 34 91 27 9 77 51 88 72 6 14 14
44 17 68 7 56 33 111 89 195 25 37 43 67 41 67 -2 0 -26 -19 -52 -42z"/>
<path d="M7269 15146 c-1 -1 -2 -17 -4 -36 -4 -45 15 -79 65 -123 40 -34 176
-107 201 -107 7 0 41 19 76 41 60 40 171 79 220 79 61 0 -13 30 -132 55 -11 2
-90 22 -175 43 -124 32 -244 55 -251 48z"/>
<path d="M9486 15141 c-16 -25 52 -178 103 -232 29 -32 67 -120 80 -184 38
-200 33 -505 -10 -625 -15 -43 -48 -95 -84 -135 -49 -55 -75 -124 -82 -224 -5
-85 -4 -91 13 -92 10 -1 33 -2 49 -4 17 -1 102 -6 190 -9 284 -12 358 -15 465
-21 58 -3 164 -7 235 -10 72 -3 166 -8 210 -10 44 -2 155 -7 246 -10 l166 -6
3 433 c1 238 3 569 5 736 l2 302 -26 1 c-14 0 -37 2 -51 4 -14 1 -86 6 -160
10 -209 11 -292 16 -525 30 -100 7 -221 14 -350 21 -55 2 -123 7 -152 9 -29 2
-110 7 -180 11 -70 3 -131 8 -135 10 -4 3 -9 0 -12 -5z"/>
<path d="M14527 15028 c1 -51 3 -191 4 -311 l3 -218 25 6 c14 3 43 17 63 31
89 58 106 184 49 354 -32 96 -66 163 -104 206 -36 42 -43 31 -40 -68z"/>
<path d="M12566 15073 c-1 -1 -121 -5 -266 -8 -146 -3 -328 -8 -405 -10 -77
-2 -273 -7 -435 -10 -162 -4 -299 -10 -303 -15 -8 -7 -13 -299 -17 -1120 -1
-168 -1 -311 -1 -318 1 -11 38 -13 199 -8 108 3 334 9 502 12 263 5 311 8 345
24 22 10 92 36 156 58 212 73 272 116 325 228 20 40 49 85 66 100 37 30 32
-28 43 519 4 198 8 399 9 448 1 48 0 91 -3 96 -5 7 -208 11 -215 4z"/>
<path d="M8923 15035 c11 -26 -36 -41 -86 -28 -23 7 -45 9 -48 5 -4 -4 -15
-29 -24 -57 -10 -27 -19 -51 -20 -52 -1 -2 -63 13 -139 33 l-137 35 -61 -53
c-34 -29 -73 -64 -87 -77 -15 -13 -41 -35 -60 -49 l-33 -26 38 -17 39 -17 30
32 c17 18 44 42 61 54 l31 21 49 -31 c63 -40 82 -62 95 -112 26 -103 35 -121
60 -120 52 1 113 12 116 20 2 5 18 36 36 69 23 43 37 59 50 57 27 -5 96 38
117 73 26 43 45 118 52 210 l3 40 -44 3 c-37 3 -43 1 -38 -13z"/>
<path d="M7560 14568 c-47 -72 -55 -126 -35 -229 19 -101 7 -137 -74 -237 -28
-35 -69 -94 -92 -133 -45 -76 -89 -119 -122 -120 -12 0 -32 -2 -45 -5 -30 -5
-47 34 -76 176 -28 140 -26 189 11 237 31 41 63 90 63 97 0 9 -142 38 -150 30
-9 -9 -68 -151 -191 -459 -57 -141 -78 -192 -99 -240 -21 -47 -60 -149 -57
-151 1 -1 31 -11 67 -22 322 -100 404 -128 466 -158 63 -31 121 -41 118 -20
-5 25 -51 68 -97 89 -63 29 -85 50 -116 112 -16 32 -39 56 -78 81 -30 19 -62
33 -69 30 -19 -7 -19 53 -1 78 13 17 18 16 107 -14 l94 -31 46 49 c60 65 108
88 226 107 111 18 150 29 210 57 35 16 40 23 42 56 2 20 -4 60 -13 87 -23 77
-20 89 36 139 57 51 57 43 -5 115 -44 53 -59 98 -60 181 -1 73 -2 75 -35 97
-42 29 -52 29 -71 1z"/>
<path d="M14327 14167 c-129 -69 -185 -120 -233 -212 -49 -94 -83 -122 -183
-155 -68 -22 -82 -22 -168 -4 -61 12 -79 0 -102 -67 -19 -57 -20 -86 -3 -75 4
2 57 7 117 11 102 5 157 10 260 20 161 16 239 28 313 50 44 13 51 19 65 57 23
63 37 167 41 301 5 139 9 136 -107 74z"/>
<path d="M15830 14036 c-69 -24 -156 -56 -195 -71 -241 -93 -473 -157 -685
-189 -19 -3 -46 -8 -60 -10 -14 -3 -81 -14 -150 -26 -167 -28 -245 -55 -281
-96 -9 -11 -21 -56 -28 -104 -41 -302 -120 -641 -214 -920 -13 -37 -43 -134
-137 -432 -11 -34 -14 -34 95 -24 149 14 198 27 280 73 159 90 705 353 915
442 118 51 229 98 246 105 22 10 35 26 47 58 71 194 90 249 126 363 51 164
116 425 134 540 42 259 51 335 40 335 -4 0 -64 -20 -133 -44z"/>
<path d="M14289 13656 c-2 -2 -36 -7 -75 -10 -39 -4 -80 -8 -90 -10 -11 -2
-50 -7 -89 -10 -38 -4 -86 -9 -105 -11 -19 -3 -55 -7 -80 -9 -63 -7 -149 -16
-185 -21 -16 -2 -43 -4 -59 -4 -28 -1 -29 -2 -23 -46 8 -58 41 -122 138 -268
43 -65 86 -134 96 -154 l17 -36 -39 -32 c-35 -30 -38 -36 -37 -81 1 -26 9 -58
17 -71 20 -30 19 -61 -3 -103 -10 -19 -133 -189 -274 -377 -142 -188 -254
-344 -250 -346 4 -2 16 -3 27 -2 36 3 159 16 210 20 28 3 70 7 95 10 25 2 74
7 110 10 36 4 81 8 100 10 19 2 69 6 110 10 83 8 80 5 122 102 104 241 252
783 317 1168 6 33 12 72 15 86 2 15 8 53 11 85 4 33 9 67 11 77 2 14 -5 17
-40 17 -23 0 -45 -2 -47 -4z"/>
<path d="M8440 13615 c-36 -8 -92 -17 -125 -20 -110 -11 -112 -13 -120 -147
-6 -85 -14 -153 -30 -233 -8 -36 -50 -123 -74 -150 -92 -103 -109 -180 -76
-338 15 -75 65 -239 84 -282 5 -11 22 -48 37 -82 29 -68 30 -69 119 -79 33 -3
69 -8 80 -10 11 -2 43 -7 70 -9 28 -3 64 -8 80 -10 17 -2 53 -7 80 -10 28 -4
61 -8 75 -11 14 -2 81 -11 150 -19 69 -9 136 -18 150 -20 14 -2 52 -7 85 -11
33 -3 67 -8 75 -9 9 -2 43 -6 75 -10 33 -4 69 -9 80 -11 11 -2 45 -6 75 -10
30 -3 66 -7 80 -9 14 -2 44 -7 68 -10 23 -3 60 -7 83 -10 l41 -5 -6 37 c-3 21
-8 58 -11 83 -4 39 -18 137 -30 220 -2 14 -6 45 -10 70 -5 44 -13 99 -20 150
-16 109 -53 408 -60 485 -3 33 -8 74 -10 90 -2 17 -7 66 -10 110 -4 44 -8 98
-10 120 -2 22 -4 52 -4 66 -1 24 -6 27 -48 34 -126 18 -190 23 -371 31 -76 3
-150 7 -167 9 -105 13 -346 13 -405 0z"/>
<path d="M9518 13553 c-14 -3 -16 -16 -12 -76 6 -132 14 -252 19 -292 2 -22 7
-71 10 -110 3 -38 7 -83 9 -100 2 -16 7 -57 10 -90 6 -63 13 -115 21 -176 3
-20 8 -54 10 -74 6 -46 8 -57 34 -210 24 -138 25 -145 47 -242 18 -81 7 -75
154 -88 36 -4 76 -8 90 -10 14 -2 61 -6 105 -10 44 -3 100 -8 125 -10 314 -30
810 -50 884 -35 l28 5 5 500 c2 275 5 605 6 733 2 128 -1 236 -6 239 -5 3 -36
7 -70 8 -106 6 -296 15 -442 21 -77 3 -176 7 -220 9 -123 7 -788 14 -807 8z"/>
<path d="M11132 13239 c-2 -219 0 -269 11 -269 27 0 125 33 287 97 167 66 227
87 335 118 86 24 246 87 266 105 14 12 79 190 79 215 0 3 -220 5 -488 4 l-488
-1 -2 -269z"/>
<path d="M11129 12658 c0 -57 -2 -219 -3 -360 -1 -142 0 -262 3 -267 4 -5 49
-11 101 -13 l94 -3 3 70 c1 39 4 131 5 205 1 130 0 139 -31 225 -37 102 -61
146 -105 193 -63 68 -66 65 -67 -50z"/>
<path d="M7921 12590 l-34 -29 32 -95 c17 -53 31 -103 31 -111 0 -18 23 -30
73 -39 27 -5 37 -3 37 6 0 17 -70 259 -82 281 -12 23 -17 21 -57 -13z"/>
<path d="M6199 12363 c-1 -11 3 -169 6 -273 1 -47 6 -211 10 -365 4 -154 8
-291 9 -305 1 -21 14 -31 76 -62 99 -49 410 -173 755 -302 536 -200 787 -306
1166 -496 200 -100 511 -271 540 -296 8 -8 19 -14 22 -14 12 0 439 -274 474
-305 7 -5 44 -32 84 -60 87 -61 396 -291 699 -521 348 -265 720 -526 720 -506
0 4 -29 66 -64 138 -182 366 -542 826 -1033 1319 -343 345 -603 563 -943 789
-188 126 -632 399 -693 427 -12 5 -31 15 -42 22 -148 89 -677 361 -910 469
-268 124 -547 237 -784 319 -96 33 -91 32 -92 22z"/>
<path d="M15930 12354 c-123 -42 -311 -114 -450 -171 -162 -68 -191 -81 -328
-144 -46 -22 -86 -39 -88 -39 -7 0 -531 -263 -579 -290 -22 -13 -74 -41 -115
-63 -41 -23 -93 -51 -115 -64 -22 -12 -47 -26 -55 -30 -39 -18 -428 -248 -520
-308 -313 -203 -390 -256 -535 -369 -103 -81 -257 -212 -359 -306 -91 -83
-435 -427 -506 -505 -109 -119 -190 -212 -275 -315 -48 -58 -94 -114 -103
-125 -100 -120 -296 -410 -370 -545 -59 -107 -114 -232 -100 -224 30 17 230
152 308 207 97 69 472 348 480 357 3 3 21 17 40 30 19 13 37 27 40 30 8 9 350
266 475 356 243 176 623 421 821 530 38 21 101 55 139 76 158 87 549 276 725
350 52 21 113 48 136 58 57 26 198 81 404 157 274 102 541 203 585 222 22 10
108 46 191 81 83 34 159 69 169 76 19 14 18 -11 30 471 3 144 8 318 10 387 3
69 1 126 -3 126 -4 -1 -27 -8 -52 -16z"/>
<path d="M7954 12235 c1 -9 0 -38 -4 -64 -7 -54 -11 -48 75 -95 28 -16 76 -44
108 -63 32 -19 60 -33 62 -31 4 4 -18 77 -35 113 -5 11 -18 41 -28 67 -25 57
-51 75 -124 83 -49 6 -56 4 -54 -10z"/>
<path d="M8200 12202 c0 -6 23 -74 51 -150 l52 -138 106 -65 c234 -142 502
-325 656 -448 251 -200 592 -524 875 -830 l96 -103 59 -1 c48 -1 59 1 57 13
-2 8 -41 89 -86 180 -45 91 -95 197 -110 235 -16 39 -32 79 -36 90 -37 89
-145 406 -155 451 -2 10 -15 57 -29 104 -37 126 -88 340 -102 430 -9 59 -15
70 -37 71 -25 2 -44 4 -102 13 -22 3 -65 8 -95 11 -30 3 -68 8 -85 10 -16 2
-52 7 -80 10 -51 5 -90 10 -158 20 -21 3 -59 8 -85 10 -26 3 -65 8 -87 10 -36
5 -155 20 -230 30 -16 2 -57 7 -90 10 -69 8 -91 11 -160 20 -27 3 -63 8 -80
10 -128 16 -145 17 -145 7z"/>
<path d="M14178 12095 c-5 -6 -57 -12 -110 -14 -34 -1 -37 -4 -51 -46 -9 -25
-13 -45 -11 -45 3 0 33 16 65 35 33 19 63 35 67 35 9 1 59 39 51 40 -3 0 -8
-2 -11 -5z"/>
<path d="M13878 12055 c-2 -2 -39 -6 -83 -9 -44 -4 -98 -9 -120 -11 -22 -3
-65 -7 -95 -10 -30 -3 -75 -7 -100 -10 -50 -5 -112 -11 -210 -20 -155 -14
-175 -17 -187 -27 -22 -18 -66 -203 -89 -377 -3 -25 -8 -55 -10 -66 -18 -91
-34 -174 -39 -195 -20 -94 -18 -97 40 -42 142 133 488 378 797 563 95 57 109
69 127 109 11 25 22 57 26 72 6 25 5 27 -24 26 -17 -1 -32 -2 -33 -3z"/>
<path d="M9703 12014 c3 -16 9 -49 12 -74 6 -36 38 -182 60 -270 106 -418 304
-930 446 -1155 40 -64 41 -65 87 -66 26 0 76 -2 112 -4 36 -1 160 -6 275 -10
116 -3 238 -7 273 -9 35 -1 65 1 68 6 3 4 7 345 10 758 5 717 4 750 -13 751
-10 1 -27 3 -38 4 -11 1 -65 6 -120 9 -55 4 -127 9 -160 12 -33 2 -103 6 -155
9 -52 2 -124 7 -160 10 -36 3 -94 8 -130 10 -36 2 -99 7 -140 10 -41 3 -113 7
-160 10 -176 11 -255 17 -264 22 -4 3 -6 -7 -3 -23z"/>
<path d="M11121 11428 c-1 -282 -3 -623 -3 -758 l-2 -245 160 2 c137 1 454 9
661 17 34 1 64 4 66 7 15 21 117 240 117 252 0 17 -76 77 -97 77 -19 0 -16 45
7 90 25 49 25 50 -4 50 -67 0 -137 64 -191 174 -25 52 -59 190 -69 281 -3 28
-8 68 -10 90 -3 22 -8 64 -11 94 -3 30 -14 69 -25 86 -21 34 -96 79 -193 115
-80 30 -110 58 -130 124 l-18 56 -129 0 -128 0 -1 -512z"/>
<path d="M3345 11589 c3 -85 7 -244 10 -354 9 -376 27 -488 91 -572 71 -93
187 -120 674 -158 41 -3 86 -8 100 -10 14 -2 54 -6 90 -10 36 -3 81 -8 100
-10 19 -3 61 -7 93 -10 32 -4 66 -8 75 -10 9 -1 42 -6 72 -10 30 -4 64 -9 75
-11 10 -2 37 -6 60 -9 22 -3 78 -12 125 -20 47 -8 103 -17 125 -21 22 -3 70
-12 107 -20 37 -7 82 -16 100 -19 65 -12 308 -65 478 -105 96 -23 182 -43 190
-45 333 -75 1011 -266 1410 -397 377 -123 1009 -358 1200 -446 25 -11 92 -41
150 -65 97 -42 132 -57 295 -132 33 -15 138 -65 234 -111 95 -46 175 -84 177
-84 13 0 411 -205 484 -249 74 -44 180 -98 285 -146 339 -153 568 -255 572
-255 7 0 -9 14 -162 142 -98 81 -253 212 -311 262 -39 34 -84 72 -100 85 -58
48 -149 126 -154 131 -3 3 -57 48 -120 100 -63 52 -120 99 -127 105 -68 56
-276 217 -363 282 -412 303 -925 602 -1460 851 -188 87 -236 109 -355 162 -71
32 -229 99 -350 149 -121 50 -229 96 -240 101 -19 8 -349 136 -570 221 -463
177 -1095 392 -1535 523 -170 50 -237 69 -450 126 -205 54 -554 131 -685 149
-38 6 -86 13 -105 16 -69 10 -106 14 -197 21 l-92 6 4 -153z"/>
<path d="M18670 11729 c-77 -9 -143 -17 -185 -24 -16 -3 -43 -7 -58 -9 -88
-14 -316 -61 -402 -83 -55 -14 -109 -27 -120 -29 -11 -2 -31 -6 -44 -9 -13 -2
-38 -9 -56 -15 -18 -6 -41 -12 -52 -14 -38 -8 -291 -79 -488 -138 -262 -78
-1008 -326 -1080 -358 -11 -5 -94 -36 -185 -69 -91 -33 -237 -87 -325 -121
-88 -34 -194 -74 -235 -90 -616 -234 -1416 -602 -1862 -856 -479 -272 -809
-506 -1327 -939 -79 -66 -158 -131 -175 -145 -17 -14 -38 -32 -46 -40 -9 -8
-68 -58 -130 -112 -63 -53 -180 -151 -259 -218 -80 -67 -153 -127 -163 -133
-10 -7 -18 -16 -18 -21 0 -4 6 -4 13 2 6 5 48 25 92 44 197 86 631 281 640
288 35 28 287 165 430 235 539 263 841 401 1190 541 88 36 169 69 180 74 11 5
38 16 60 23 22 8 83 31 135 51 323 125 1037 359 1310 431 8 2 74 20 145 40
108 30 522 138 575 150 8 2 121 28 250 58 193 45 364 82 622 132 89 18 374 62
513 80 22 3 56 7 75 10 108 14 246 28 385 40 33 3 89 7 125 11 64 5 77 7 190
19 277 30 365 87 405 258 26 114 32 197 40 592 4 149 7 289 8 313 l2 43 -55
-3 c-30 -1 -84 -5 -120 -9z"/>
<path d="M12140 10539 c-46 -92 -45 -89 -18 -84 21 4 98 80 98 97 0 4 -10 18
-22 32 l-23 26 -35 -71z"/>
<path d="M26 10550 c4 -16 -1 -40 -10 -57 l-15 -31 92 -133 c51 -74 118 -170
149 -214 31 -44 78 -111 105 -150 39 -56 333 -478 373 -535 20 -28 345 -494
486 -695 76 -109 141 -203 143 -209 2 -5 10 -16 17 -25 13 -16 90 -124 172
-243 46 -67 358 -514 380 -545 7 -10 11 -13 9 -8 -19 45 -185 396 -316 669
-44 92 -81 170 -81 171 0 2 -40 87 -90 190 -50 103 -90 188 -90 190 0 1 -34
74 -76 161 -87 181 -152 317 -199 419 -18 39 -63 133 -100 210 -37 77 -77 160
-88 185 -12 25 -23 49 -25 54 -4 7 156 2 288 -9 25 -2 86 -6 135 -10 95 -6
184 -13 250 -20 22 -2 72 -7 110 -10 39 -3 88 -8 110 -10 22 -3 72 -7 110 -10
39 -3 84 -7 100 -10 17 -2 57 -6 90 -10 33 -3 76 -8 95 -11 19 -2 60 -7 90 -9
30 -3 71 -7 90 -10 19 -2 60 -7 90 -11 30 -3 66 -8 80 -9 14 -2 54 -6 90 -10
36 -4 72 -8 81 -11 9 -3 36 -7 60 -9 78 -8 141 -16 279 -36 74 -11 153 -22
175 -25 22 -2 51 -7 65 -9 14 -2 45 -7 70 -10 25 -3 70 -10 100 -15 66 -11
263 -41 305 -46 17 -2 39 -6 51 -9 12 -2 39 -7 60 -11 36 -5 357 -59 414 -69
14 -3 54 -10 90 -16 36 -5 83 -14 105 -19 22 -5 63 -12 90 -16 28 -3 53 -8 56
-10 3 -2 21 -6 40 -9 30 -5 74 -13 159 -30 14 -3 41 -8 60 -11 90 -14 935
-191 1053 -220 9 -2 25 -6 35 -8 266 -60 733 -176 1097 -271 407 -107 902
-260 1250 -388 408 -149 696 -283 1135 -530 146 -82 355 -193 465 -247 190
-93 502 -226 511 -217 10 10 -145 196 -256 307 -315 316 -743 603 -1315 885
-126 62 -266 129 -310 148 -168 74 -416 177 -426 177 -5 0 -17 5 -27 10 -36
21 -450 173 -682 250 -319 107 -823 257 -1141 340 -119 31 -553 140 -579 145
-8 2 -33 8 -55 14 -86 22 -559 127 -625 137 -19 3 -38 8 -41 10 -5 3 -326 68
-434 88 -33 6 -99 18 -120 22 -11 2 -42 8 -70 14 -78 16 -314 58 -370 65 -27
4 -53 9 -56 11 -3 2 -64 12 -135 24 -71 11 -140 22 -154 25 -32 6 -159 26
-185 29 -11 2 -40 6 -65 10 -25 4 -56 9 -70 11 -14 2 -86 13 -160 24 -74 11
-157 23 -185 26 -27 3 -61 8 -75 10 -14 3 -42 7 -63 10 -87 12 -106 14 -187
25 -47 6 -103 13 -125 16 -22 2 -71 9 -110 14 -38 5 -95 12 -125 15 -30 3 -68
7 -85 9 -16 2 -59 7 -95 11 -36 4 -78 9 -95 10 -16 2 -58 7 -93 10 -35 4 -71
8 -80 10 -9 1 -53 6 -97 9 -44 4 -91 9 -105 11 -14 2 -64 6 -112 10 -48 3 -98
8 -110 10 -13 2 -64 6 -114 10 -49 3 -110 7 -135 10 -48 4 -157 12 -289 20
-47 3 -112 8 -145 11 -33 3 -198 7 -367 9 l-307 3 5 -28z"/>
<path d="M21657 10574 c-1 -1 -65 -5 -142 -9 -77 -4 -162 -8 -190 -10 -27 -2
-86 -7 -130 -10 -44 -3 -107 -7 -140 -10 -33 -2 -89 -7 -125 -10 -118 -10
-184 -16 -230 -20 -25 -2 -72 -7 -105 -10 -33 -2 -78 -7 -100 -10 -22 -2 -67
-7 -100 -10 -33 -3 -73 -7 -90 -9 -16 -2 -61 -7 -100 -10 -38 -4 -77 -9 -85
-11 -8 -2 -46 -6 -85 -10 -38 -3 -81 -8 -95 -10 -14 -2 -45 -6 -70 -9 -185
-22 -229 -28 -256 -32 -17 -3 -46 -6 -65 -8 -19 -2 -72 -9 -119 -16 -47 -6
-101 -13 -120 -16 -19 -3 -46 -7 -60 -9 -14 -2 -45 -7 -70 -10 -25 -3 -56 -8
-70 -10 -14 -2 -45 -7 -70 -10 -25 -4 -99 -15 -165 -25 -66 -10 -138 -21 -160
-25 -53 -8 -73 -11 -185 -30 -52 -9 -111 -18 -130 -21 -19 -3 -42 -7 -50 -9
-8 -2 -37 -7 -65 -11 -27 -3 -53 -8 -56 -10 -3 -1 -28 -6 -55 -10 -27 -3 -58
-8 -69 -10 -11 -2 -33 -7 -50 -9 -16 -3 -37 -8 -45 -10 -8 -2 -33 -7 -55 -10
-49 -6 -81 -12 -103 -19 -9 -3 -34 -7 -54 -10 -21 -3 -140 -26 -265 -51 -125
-25 -237 -47 -248 -49 -562 -112 -1458 -338 -2045 -517 -387 -118 -946 -314
-1185 -414 -526 -220 -784 -343 -1064 -504 -69 -39 -126 -71 -127 -71 -7 0
-273 -175 -357 -234 -97 -69 -235 -177 -302 -236 -157 -140 -348 -345 -408
-440 -19 -31 -19 -32 -1 -22 10 6 77 33 147 61 233 94 432 190 687 333 435
244 630 344 880 451 434 185 1023 379 1696 556 219 58 588 151 623 158 14 2
86 19 160 38 127 31 208 50 256 60 11 2 99 22 195 43 96 22 200 45 230 51 30
6 64 13 75 15 11 3 65 14 120 26 55 12 111 24 125 27 14 2 79 15 145 28 136
28 533 103 584 111 18 3 43 8 55 10 11 2 46 8 76 14 30 6 64 12 75 14 11 2 40
7 65 11 25 4 52 9 60 10 8 1 35 6 60 10 25 4 54 9 65 11 10 2 37 6 60 9 22 3
47 8 55 10 8 2 33 6 55 10 22 3 65 10 95 15 30 5 78 12 105 15 28 4 57 8 65
10 15 4 34 7 120 20 58 9 93 14 128 20 15 2 95 13 177 25 147 20 175 24 265
35 25 3 56 8 70 10 25 5 72 11 160 20 25 3 59 7 75 10 17 2 53 7 80 10 28 3
84 10 125 15 41 5 100 12 130 15 30 3 71 8 90 10 19 3 62 7 95 10 33 3 76 7
95 9 19 3 64 7 100 11 129 11 176 16 215 20 22 2 74 7 115 10 41 4 95 8 120
10 316 27 550 38 550 27 0 -5 -16 -42 -36 -83 -20 -41 -51 -105 -69 -144 -18
-38 -58 -124 -90 -190 -31 -66 -72 -151 -90 -190 -18 -38 -57 -122 -88 -185
-113 -238 -161 -337 -197 -415 -65 -137 -125 -265 -185 -390 -79 -165 -220
-464 -262 -555 -19 -41 -38 -79 -41 -85 -16 -30 23 21 84 110 37 55 123 179
191 275 68 96 128 182 133 190 6 8 56 80 112 160 56 80 126 181 157 225 30 44
109 157 176 252 66 95 188 269 270 388 83 119 182 260 220 315 67 94 373 533
518 742 37 54 64 98 59 98 -16 0 -34 68 -23 88 10 19 2 19 -245 18 -140 0
-256 -1 -257 -2z"/>
<path d="M10110 10388 c0 -5 33 -49 73 -96 40 -48 86 -105 102 -127 16 -22 32
-42 35 -45 11 -10 118 -157 170 -233 49 -71 57 -79 104 -92 95 -27 208 -51
286 -60 l45 -5 -38 22 c-189 113 -288 187 -397 297 -100 102 -113 116 -207
243 -50 66 -78 96 -90 94 -10 -2 -32 0 -50 5 -20 4 -33 3 -33 -3z"/>
<path d="M10334 10364 c39 -101 273 -351 416 -445 111 -72 257 -138 279 -125
8 5 3 547 -5 555 -2 3 -35 6 -72 7 -102 2 -404 14 -521 20 -95 5 -103 4 -97
-12z"/>
<path d="M11667 10363 c-1 -1 -125 -3 -275 -6 -150 -2 -274 -6 -277 -8 -2 -3
-5 -136 -7 -298 l-3 -293 50 6 c211 23 480 183 635 381 25 31 54 67 65 80 11
14 35 51 53 84 l33 60 -136 -2 c-75 -1 -137 -3 -138 -4z"/>
<path d="M11529 9656 c-17 -18 -579 -28 -796 -14 l-92 5 47 -91 47 -91 70 -6
c135 -10 639 0 650 13 13 17 85 173 83 180 -2 5 -6 7 -9 4z"/>
<path d="M10247 7044 c-1 -1 -630 -4 -1397 -8 -1351 -5 -1802 -9 -2740 -21
-1022 -13 -1858 -32 -2210 -50 -396 -20 -515 -30 -539 -45 -25 -15 3 -22 139
-34 264 -24 754 -41 1735 -61 203 -4 572 -9 1410 -20 1937 -25 6745 -25 8925
0 946 11 1850 26 2300 40 310 9 478 15 555 20 44 2 123 7 175 10 147 8 267 22
284 32 14 9 -29 22 -92 28 -31 3 -75 7 -97 10 -76 8 -382 23 -610 30 -645 19
-1058 28 -1975 40 -797 11 -1333 15 -2560 21 -1179 6 -3300 11 -3303 8z"/>
<path d="M2915 4268 l1 -1883 639 -2 c540 -1 650 1 705 13 306 71 490 274 528
579 8 67 7 2516 -1 2580 -22 167 -83 294 -192 401 -86 83 -205 145 -350 180
-16 4 -322 9 -680 11 l-650 4 0 -1883z m1096 1383 c104 -22 178 -92 205 -194
11 -43 14 -254 14 -1197 -1 -1213 1 -1171 -44 -1259 -19 -36 -63 -79 -100 -96
-75 -36 -121 -41 -363 -43 l-243 -2 0 1403 0 1403 238 -2 c139 0 260 -6 293
-13z"/>
<path d="M11819 6143 c-1 -5 -2 -117 -3 -250 l-1 -243 312 0 312 0 0 -1587 c0
-874 0 -1609 0 -1635 l1 -48 280 0 280 0 0 1635 0 1635 310 0 310 0 1 80 c0
44 0 100 0 125 0 25 0 101 0 170 l-1 125 -900 0 c-495 0 -901 -3 -901 -7z"/>
<path d="M5210 5445 l0 -285 278 0 277 0 -2 267 c-1 148 -2 276 -2 286 -1 16
-21 17 -276 17 l-275 0 0 -285z"/>
<path d="M5233 4810 c-17 -5 -18 -56 -18 -1215 l1 -1210 271 -3 272 -2 0 1215
c-1 920 -3 1215 -12 1216 -63 3 -500 3 -514 -1z"/>
<path d="M6172 4802 c-2 -8 -5 -555 -6 -1218 l-1 -1204 278 0 277 0 0 980 c0
926 1 980 18 981 9 0 107 2 217 5 l200 4 0 -275 c0 -151 2 -276 5 -276 3 -1
124 -2 268 -3 227 -1 265 1 271 14 8 19 6 705 -3 777 -12 99 -53 160 -134 200
-53 26 -65 28 -182 28 -130 0 -186 -6 -317 -30 -16 -3 -41 -8 -58 -10 -16 -3
-86 -16 -155 -29 l-125 -23 -3 44 c-2 23 -6 43 -10 44 -4 0 -126 1 -271 2
-211 2 -265 -1 -269 -11z"/>
<path d="M8337 4814 c-1 -1 -29 -4 -62 -8 -82 -8 -103 -15 -152 -48 -52 -35
-88 -95 -101 -168 -14 -75 -14 -1916 0 -1993 15 -84 59 -144 132 -182 l60 -30
585 0 586 0 60 30 c72 37 114 91 130 171 6 33 11 165 10 327 l0 272 -262 1
-263 1 0 -76 c-1 -42 -2 -132 -3 -201 l-2 -125 -257 -2 -258 -1 0 341 0 342
446 0 446 0 77 77 78 77 -2 488 c-1 268 -5 497 -9 508 -47 124 -112 176 -238
191 -42 5 -995 13 -1001 8z m720 -699 l3 -290 -258 0 -257 0 -3 291 -2 291
257 -1 258 -1 2 -290z"/>
<path d="M10265 4808 c-169 -14 -251 -85 -272 -233 -5 -33 -8 -490 -7 -1015 1
-1044 0 -1011 59 -1082 37 -44 70 -65 132 -83 78 -23 1116 -22 1194 1 83 25
116 52 152 124 l32 65 3 357 2 358 -22 1 c-31 1 -467 1 -495 0 l-23 -1 0 -230
c0 -126 -3 -230 -7 -231 -12 0 -392 -1 -443 0 l-45 1 2 737 c1 406 2 747 2
758 1 19 7 20 238 18 131 -1 241 -2 246 -2 4 -1 7 -95 7 -210 l0 -208 270 0
270 0 -1 327 c-1 319 -2 329 -24 385 -39 96 -106 147 -213 161 -67 9 -956 11
-1057 2z"/>
<path d="M13888 4809 c-8 -5 -14 -1735 -8 -2371 l0 -58 275 0 275 0 0 979 0
979 53 4 c28 1 126 3 217 3 l165 0 1 -265 c1 -146 2 -270 3 -275 1 -7 93 -10
264 -9 144 1 267 2 272 3 15 2 12 800 -3 827 -6 12 -9 24 -6 26 2 3 -10 27
-28 54 -24 36 -49 57 -92 79 -57 28 -66 30 -180 30 -67 0 -150 -4 -186 -8 -67
-8 -432 -74 -462 -83 -15 -5 -18 1 -18 40 0 30 -4 46 -12 47 -64 4 -522 3
-530 -2z"/>
<path d="M16057 4814 c-1 -1 -29 -4 -62 -7 -33 -3 -71 -8 -83 -11 -29 -6 -104
-50 -119 -68 -19 -23 -50 -82 -58 -113 -13 -47 -13 -1937 0 -2017 14 -89 53
-143 131 -183 l58 -30 585 0 586 0 52 23 c63 29 106 75 129 138 15 42 18 91
20 345 l2 296 -264 0 -264 0 -2 -201 -3 -201 -258 -2 -257 -2 2 342 3 342 446
0 445 0 76 76 76 76 -2 494 c-1 492 -1 494 -24 545 -13 29 -36 64 -51 78 -44
42 -130 73 -214 76 -74 2 -947 6 -950 4z m711 -698 l-3 -291 -255 0 -255 0 -3
291 -2 291 260 0 260 0 -2 -291z"/>
<path d="M18037 4814 c-1 -1 -31 -4 -67 -7 -36 -3 -74 -8 -85 -12 -114 -40
-169 -108 -183 -228 -9 -81 -7 -1909 2 -1966 17 -103 77 -172 176 -202 63 -19
90 -20 631 -17 l564 3 48 24 c64 32 111 89 131 160 13 47 16 110 16 338 l0
280 -264 0 -264 -1 0 -165 c0 -91 -1 -182 -1 -203 l-1 -36 -255 0 c-229 0
-255 1 -258 16 -3 10 -4 163 -3 342 l1 325 447 0 447 0 75 75 76 75 0 475 c0
541 -2 560 -75 638 -39 43 -99 69 -178 78 -50 6 -974 13 -980 8z m704 -433 c0
-14 1 -145 1 -291 l1 -265 -259 0 -260 0 2 290 c1 159 2 290 3 291 0 1 116 1
256 1 l255 0 1 -26z"/>
</g>
</svg>
